<?xml version="1.0" encoding="UTF-8" standalone="no"?>
<!DOCTYPE svg PUBLIC "-//W3C//DTD SVG 1.1//EN"
 "http://www.w3.org/Graphics/SVG/1.1/DTD/svg11.dtd">
<!-- Generated by graphviz version 2.40.1 (20161225.0304)
 -->
<!-- Title: %3 Pages: 1 -->
<svg width="1024pt" height="302pt"
 viewBox="0.00 0.00 1023.86 302.00" xmlns="http://www.w3.org/2000/svg" xmlns:xlink="http://www.w3.org/1999/xlink">
<g id="graph0" class="graph" transform="scale(1 1) rotate(0) translate(4 298)">
<title>%3</title>
<polygon fill="#ffffff" stroke="transparent" points="-4,4 -4,-298 1019.861,-298 1019.861,4 -4,4"/>
<!-- 0 -->
<g id="node1" class="node">
<title>0</title>
<ellipse fill="none" stroke="#000000" cx="654.1413" cy="-276" rx="69.713" ry="18"/>
<text text-anchor="middle" x="654.1413" y="-271.8" font-family="Times,serif" font-size="14.00" fill="#000000">holder_age&lt;57.5</text>
</g>
<!-- 1 -->
<g id="node2" class="node">
<title>1</title>
<ellipse fill="none" stroke="#000000" cx="540.1413" cy="-190" rx="69.713" ry="18"/>
<text text-anchor="middle" x="540.1413" y="-185.8" font-family="Times,serif" font-size="14.00" fill="#000000">holder_age&lt;55.5</text>
</g>
<!-- 0&#45;&gt;1 -->
<g id="edge1" class="edge">
<title>0&#45;&gt;1</title>
<path fill="none" stroke="#0000ff" d="M631.3457,-258.8033C614.0259,-245.7375 590.02,-227.6277 570.9841,-213.2673"/>
<polygon fill="#0000ff" stroke="#0000ff" points="572.9885,-210.3952 562.8974,-207.1669 568.7728,-215.9834 572.9885,-210.3952"/>
<text text-anchor="middle" x="638.7551" y="-228.8" font-family="Times,serif" font-size="14.00" fill="#000000">yes, missing</text>
</g>
<!-- 2 -->
<g id="node3" class="node">
<title>2</title>
<ellipse fill="none" stroke="#000000" cx="768.1413" cy="-190" rx="74.5242" ry="18"/>
<text text-anchor="middle" x="768.1413" y="-185.8" font-family="Times,serif" font-size="14.00" fill="#000000">occupant_age&lt;7.5</text>
</g>
<!-- 0&#45;&gt;2 -->
<g id="edge2" class="edge">
<title>0&#45;&gt;2</title>
<path fill="none" stroke="#ff0000" d="M676.937,-258.8033C694.2568,-245.7375 718.2627,-227.6277 737.2986,-213.2673"/>
<polygon fill="#ff0000" stroke="#ff0000" points="739.5099,-215.9834 745.3852,-207.1669 735.2942,-210.3952 739.5099,-215.9834"/>
<text text-anchor="middle" x="725.1413" y="-228.8" font-family="Times,serif" font-size="14.00" fill="#000000">no</text>
</g>
<!-- 3 -->
<g id="node4" class="node">
<title>3</title>
<ellipse fill="none" stroke="#000000" cx="256.1413" cy="-104" rx="130.5599" ry="18"/>
<text text-anchor="middle" x="256.1413" y="-99.8" font-family="Times,serif" font-size="14.00" fill="#000000">home_number_of_bedrooms_4&lt;1</text>
</g>
<!-- 1&#45;&gt;3 -->
<g id="edge3" class="edge">
<title>1&#45;&gt;3</title>
<path fill="none" stroke="#0000ff" d="M494.8267,-176.2779C447.6499,-161.992 373.3583,-139.4953 320.1917,-123.3955"/>
<polygon fill="#0000ff" stroke="#0000ff" points="321.1066,-120.0157 310.5214,-120.4672 319.0778,-126.7153 321.1066,-120.0157"/>
<text text-anchor="middle" x="450.7551" y="-142.8" font-family="Times,serif" font-size="14.00" fill="#000000">yes, missing</text>
</g>
<!-- 4 -->
<g id="node5" class="node">
<title>4</title>
<ellipse fill="none" stroke="#000000" cx="540.1413" cy="-104" rx="135.3786" ry="18"/>
<text text-anchor="middle" x="540.1413" y="-99.8" font-family="Times,serif" font-size="14.00" fill="#000000">home_square_footage&lt;263.773102</text>
</g>
<!-- 1&#45;&gt;4 -->
<g id="edge4" class="edge">
<title>1&#45;&gt;4</title>
<path fill="none" stroke="#ff0000" d="M540.1413,-171.7616C540.1413,-160.3597 540.1413,-145.4342 540.1413,-132.494"/>
<polygon fill="#ff0000" stroke="#ff0000" points="543.6414,-132.2121 540.1413,-122.2121 536.6414,-132.2121 543.6414,-132.2121"/>
<text text-anchor="middle" x="547.1413" y="-142.8" font-family="Times,serif" font-size="14.00" fill="#000000">no</text>
</g>
<!-- 5 -->
<g id="node10" class="node">
<title>5</title>
<ellipse fill="none" stroke="#000000" cx="768.1413" cy="-104" rx="74.5242" ry="18"/>
<text text-anchor="middle" x="768.1413" y="-99.8" font-family="Times,serif" font-size="14.00" fill="#000000">occupant_age&lt;6.5</text>
</g>
<!-- 2&#45;&gt;5 -->
<g id="edge9" class="edge">
<title>2&#45;&gt;5</title>
<path fill="none" stroke="#0000ff" d="M768.1413,-171.7616C768.1413,-160.3597 768.1413,-145.4342 768.1413,-132.494"/>
<polygon fill="#0000ff" stroke="#0000ff" points="771.6414,-132.2121 768.1413,-122.2121 764.6414,-132.2121 771.6414,-132.2121"/>
<text text-anchor="middle" x="802.7551" y="-142.8" font-family="Times,serif" font-size="14.00" fill="#000000">yes, missing</text>
</g>
<!-- 6 -->
<g id="node11" class="node">
<title>6</title>
<ellipse fill="none" stroke="#000000" cx="938.1413" cy="-104" rx="77.9398" ry="18"/>
<text text-anchor="middle" x="938.1413" y="-99.8" font-family="Times,serif" font-size="14.00" fill="#000000">leaf=&#45;0.198679864</text>
</g>
<!-- 2&#45;&gt;6 -->
<g id="edge10" class="edge">
<title>2&#45;&gt;6</title>
<path fill="none" stroke="#ff0000" d="M801.2724,-173.8161C813.7897,-167.661 828.1453,-160.5534 841.1413,-154 859.5542,-144.7152 879.8446,-134.2871 897.0874,-125.3664"/>
<polygon fill="#ff0000" stroke="#ff0000" points="899.0528,-128.29 906.322,-120.5823 895.8328,-122.0746 899.0528,-128.29"/>
<text text-anchor="middle" x="875.1413" y="-142.8" font-family="Times,serif" font-size="14.00" fill="#000000">no</text>
</g>
<!-- 7 -->
<g id="node6" class="node">
<title>7</title>
<ellipse fill="none" stroke="#000000" cx="82.1413" cy="-18" rx="82.2829" ry="18"/>
<text text-anchor="middle" x="82.1413" y="-13.8" font-family="Times,serif" font-size="14.00" fill="#000000">leaf=&#45;0.0434550345</text>
</g>
<!-- 3&#45;&gt;7 -->
<g id="edge5" class="edge">
<title>3&#45;&gt;7</title>
<path fill="none" stroke="#0000ff" d="M220.9298,-86.5966C193.1521,-72.8674 154.2998,-53.6645 124.7653,-39.067"/>
<polygon fill="#0000ff" stroke="#0000ff" points="126.045,-35.7954 115.5294,-34.5021 122.9434,-42.0708 126.045,-35.7954"/>
<text text-anchor="middle" x="214.7551" y="-56.8" font-family="Times,serif" font-size="14.00" fill="#000000">yes, missing</text>
</g>
<!-- 8 -->
<g id="node7" class="node">
<title>8</title>
<ellipse fill="none" stroke="#000000" cx="257.1413" cy="-18" rx="74.55" ry="18"/>
<text text-anchor="middle" x="257.1413" y="-13.8" font-family="Times,serif" font-size="14.00" fill="#000000">leaf=0.121916451</text>
</g>
<!-- 3&#45;&gt;8 -->
<g id="edge6" class="edge">
<title>3&#45;&gt;8</title>
<path fill="none" stroke="#ff0000" d="M256.3534,-85.7616C256.486,-74.3597 256.6595,-59.4342 256.81,-46.494"/>
<polygon fill="#ff0000" stroke="#ff0000" points="260.313,-46.2522 256.9296,-36.2121 253.3134,-46.1707 260.313,-46.2522"/>
<text text-anchor="middle" x="264.1413" y="-56.8" font-family="Times,serif" font-size="14.00" fill="#000000">no</text>
</g>
<!-- 9 -->
<g id="node8" class="node">
<title>9</title>
<ellipse fill="none" stroke="#000000" cx="427.1413" cy="-18" rx="77.2916" ry="18"/>
<text text-anchor="middle" x="427.1413" y="-13.8" font-family="Times,serif" font-size="14.00" fill="#000000">leaf=&#45;0.192233011</text>
</g>
<!-- 4&#45;&gt;9 -->
<g id="edge7" class="edge">
<title>4&#45;&gt;9</title>
<path fill="none" stroke="#0000ff" d="M516.7277,-86.1807C499.7977,-73.296 476.7481,-55.7538 458.2688,-41.69"/>
<polygon fill="#0000ff" stroke="#0000ff" points="460.2156,-38.7733 450.1384,-35.5022 455.9763,-44.3436 460.2156,-38.7733"/>
<text text-anchor="middle" x="525.7551" y="-56.8" font-family="Times,serif" font-size="14.00" fill="#000000">yes, missing</text>
</g>
<!-- 10 -->
<g id="node9" class="node">
<title>10</title>
<ellipse fill="none" stroke="#000000" cx="597.1413" cy="-18" rx="74.55" ry="18"/>
<text text-anchor="middle" x="597.1413" y="-13.8" font-family="Times,serif" font-size="14.00" fill="#000000">leaf=0.164310381</text>
</g>
<!-- 4&#45;&gt;10 -->
<g id="edge8" class="edge">
<title>4&#45;&gt;10</title>
<path fill="none" stroke="#ff0000" d="M552.2296,-85.7616C560.2181,-73.7087 570.8164,-57.7184 579.7113,-44.298"/>
<polygon fill="#ff0000" stroke="#ff0000" points="582.6587,-46.1862 585.266,-35.9172 576.8239,-42.319 582.6587,-46.1862"/>
<text text-anchor="middle" x="579.1413" y="-56.8" font-family="Times,serif" font-size="14.00" fill="#000000">no</text>
</g>
<!-- 11 -->
<g id="node12" class="node">
<title>11</title>
<ellipse fill="none" stroke="#000000" cx="767.1413" cy="-18" rx="77.9398" ry="18"/>
<text text-anchor="middle" x="767.1413" y="-13.8" font-family="Times,serif" font-size="14.00" fill="#000000">leaf=&#45;0.189999998</text>
</g>
<!-- 5&#45;&gt;11 -->
<g id="edge11" class="edge">
<title>5&#45;&gt;11</title>
<path fill="none" stroke="#0000ff" d="M767.9293,-85.7616C767.7967,-74.3597 767.6231,-59.4342 767.4727,-46.494"/>
<polygon fill="#0000ff" stroke="#0000ff" points="770.9692,-46.1707 767.3531,-36.2121 763.9697,-46.2522 770.9692,-46.1707"/>
<text text-anchor="middle" x="802.7551" y="-56.8" font-family="Times,serif" font-size="14.00" fill="#000000">yes, missing</text>
</g>
<!-- 12 -->
<g id="node13" class="node">
<title>12</title>
<ellipse fill="none" stroke="#000000" cx="937.1413" cy="-18" rx="74.55" ry="18"/>
<text text-anchor="middle" x="937.1413" y="-13.8" font-family="Times,serif" font-size="14.00" fill="#000000">leaf=0.105624549</text>
</g>
<!-- 5&#45;&gt;12 -->
<g id="edge12" class="edge">
<title>5&#45;&gt;12</title>
<path fill="none" stroke="#ff0000" d="M801.2873,-87.8455C813.8063,-81.6939 828.1592,-74.5808 841.1413,-68 859.5263,-58.6804 879.7806,-48.1679 896.9272,-39.1956"/>
<polygon fill="#ff0000" stroke="#ff0000" points="898.8695,-42.1293 906.1018,-34.3869 895.6198,-35.9293 898.8695,-42.1293"/>
<text text-anchor="middle" x="875.1413" y="-56.8" font-family="Times,serif" font-size="14.00" fill="#000000">no</text>
</g>
</g>
</svg>
